<svg width="51" height="120" viewBox="0 0 51 120" fill="none" xmlns="http://www.w3.org/2000/svg">
<path d="M50.4963 49.4533V41.3618C50.4963 37.2845 49.1837 33.2702 44.5985 32.1464C41.272 31.3372 36.5069 30.2763 36.5069 30.2763C31.2204 28.9367 31.4722 22.9849 31.4722 20.6204H19.0426C19.0426 22.9849 19.2809 28.9367 13.9854 30.2943C13.9854 30.2943 9.22934 31.3552 5.89381 32.1643C1.31758 33.2747 0.00494385 37.3025 0.00494385 41.3797V49.4713C0.00494385 53.2474 3.27753 57.4595 3.27753 60.368V96.8834C3.27753 99.7649 0.00494385 103.986 0.00494385 107.762V115.854C0.00494385 117.629 0.904007 119.158 3.27753 119.158H47.2058C49.5658 119.158 50.4784 117.629 50.4784 115.854V107.762C50.4784 103.986 47.2058 99.7784 47.2058 96.8654V60.35C47.2058 57.4415 50.4963 53.2294 50.4963 49.4533Z" fill="#A1151A"/>
<path d="M31.4632 0.418457H19.0426V20.6204H31.4632V0.418457Z" fill="#D7B344"/>
<path d="M38.849 47.4395H11.6523V100.444H38.849V47.4395Z" fill="#D7B344"/>
<path d="M38.849 67.8977H11.6523V76.6006H38.849V67.8977Z" fill="white"/>
<path d="M25.2507 62.6291C28.1157 62.6291 30.4383 60.3065 30.4383 57.4415C30.4383 54.5765 28.1157 52.2539 25.2507 52.2539C22.3856 52.2539 20.0631 54.5765 20.0631 57.4415C20.0631 60.3065 22.3856 62.6291 25.2507 62.6291Z" fill="#A1151A"/>
<path d="M33.2523 76.6006H17.249V95.0898H33.2523V76.6006Z" fill="#A1151A"/>
</svg>
