<svg width="107" height="82" viewBox="0 0 107 82" fill="none" xmlns="http://www.w3.org/2000/svg">
<path d="M31.3038 10.8072C30.2652 10.8072 29.3199 11.296 28.7086 11.9751C28.0973 12.6542 27.7581 13.4851 27.5961 14.3409C27.5961 14.3413 27.5961 14.3417 27.5961 14.3421L26.557 19.836C25.2709 20.2627 24.0209 20.7828 22.8114 21.3937L18.1847 18.239C17.4655 17.7487 16.638 17.4002 15.7255 17.3521C14.812 17.3041 13.7988 17.6291 13.0654 18.3626L7.60241 23.8256C6.86804 24.5598 6.54412 25.5736 6.59152 26.486C6.63863 27.3985 6.98669 28.228 7.47714 28.9479L10.6182 33.5548C10.0089 34.7704 9.49146 36.0267 9.06794 37.3189L3.57932 38.3577C2.72351 38.5196 1.89106 38.8589 1.21195 39.4701C0.53284 40.0814 0.0443115 41.0285 0.0443115 42.067V49.7929C0.0443115 50.8314 0.53284 51.7768 1.21195 52.3881C1.89106 52.9994 2.72351 53.3399 3.57932 53.5018L9.07672 54.5432C9.50342 55.8281 10.0225 57.0769 10.6331 58.2853L7.47714 62.912C6.98631 63.6319 6.63894 64.4608 6.59152 65.3735C6.54444 66.2861 6.86772 67.2998 7.60241 68.0339L13.0654 73.4969C13.7997 74.2313 14.813 74.5539 15.7255 74.5061C16.638 74.4583 17.4662 74.1103 18.186 73.6196L22.7929 70.4795C24.0089 71.0886 25.2659 71.6054 26.5583 72.0287L27.5971 77.5174C27.7591 78.3732 28.0986 79.2057 28.7099 79.8848C29.3212 80.5639 30.2665 81.0524 31.3051 81.0524H39.0323C40.0708 81.0524 41.0162 80.5639 41.6275 79.8848C42.2385 79.206 42.5782 78.3741 42.7403 77.5187V77.5168L43.7803 72.0233C45.0665 71.5966 46.3164 71.0765 47.526 70.4656L52.1514 73.619C52.8711 74.1097 53.6994 74.4578 54.6119 74.5056C55.5243 74.5534 56.5389 74.2306 57.2733 73.4963L62.7363 68.0333C63.4706 67.2989 63.7938 66.2841 63.7459 65.3716C63.6981 64.4591 63.3498 63.6308 62.8589 62.9111L59.7179 58.3045C60.3274 57.0886 60.8445 55.8325 61.2681 54.5401L66.7567 53.5013C67.6125 53.3393 68.445 52.9988 69.1241 52.3875C69.8032 51.7763 70.2918 50.8309 70.2918 49.7923V42.0661C70.2918 41.0276 69.8032 40.0809 69.1241 39.4696C68.4453 38.8587 67.6134 38.5192 66.7581 38.3572L61.2632 37.3171C60.8367 36.0317 60.3161 34.7826 59.7056 33.5737L62.8602 28.9474C63.3508 28.2278 63.699 27.3994 63.7472 26.4868C63.7955 25.5743 63.4711 24.5595 62.7363 23.8251L57.2746 18.3621C56.5401 17.6281 55.5259 17.3036 54.6129 17.3516C53.7005 17.3998 52.8731 17.7484 52.154 18.2385L47.5471 21.3795C46.3311 20.7704 45.0741 20.2536 43.7816 19.8303L42.7412 14.3403C42.5793 13.4846 42.24 12.6537 41.6288 11.9746C41.0175 11.2955 40.0721 10.8066 39.0336 10.8066L31.3038 10.8072ZM35.1675 32.6237C42.5318 32.6237 48.4719 38.5649 48.4716 45.9291C48.4716 53.293 42.5314 59.2342 35.1675 59.2345C27.8033 59.2345 21.8621 53.2933 21.8619 45.9291C21.8619 38.5646 27.803 32.6235 35.1675 32.6237Z" fill="#A1151A"/>
<path d="M86.2387 0.759194C85.6909 0.759194 85.1923 1.01705 84.8699 1.37523C84.5474 1.73341 84.3685 2.17165 84.2831 2.62305C84.2831 2.62327 84.2831 2.62349 84.2831 2.62372L83.735 5.52144C83.0566 5.7465 82.3973 6.02083 81.7594 6.34305L79.319 4.67912C78.9396 4.42051 78.5032 4.23668 78.0219 4.21131C77.5401 4.18601 77.0057 4.35744 76.6188 4.74433L73.7374 7.62579C73.35 8.01303 73.1792 8.54778 73.2042 9.02903C73.229 9.51029 73.4126 9.94781 73.6713 10.3275L75.328 12.7574C75.0067 13.3987 74.7337 14.0613 74.5104 14.7428L71.6154 15.2907C71.164 15.3762 70.7249 15.5551 70.3667 15.8775C70.0085 16.1999 69.7508 16.6995 69.7508 17.2472V21.3223C69.7508 21.8701 70.0085 22.3687 70.3667 22.6911C70.7249 23.0135 71.164 23.1931 71.6154 23.2786L74.515 23.8278C74.74 24.5055 75.0138 25.1642 75.3359 25.8016L73.6713 28.2419C73.4124 28.6217 73.2292 29.0589 73.2042 29.5403C73.1793 30.0216 73.3498 30.5563 73.7374 30.9435L76.6188 33.825C77.0061 34.2123 77.5406 34.3825 78.0219 34.3573C78.5032 34.3321 78.94 34.1485 79.3197 33.8897L81.7496 32.2334C82.391 32.5547 83.054 32.8273 83.7357 33.0506L84.2836 35.9456C84.369 36.397 84.5481 36.8361 84.8705 37.1943C85.193 37.5524 85.6916 37.8101 86.2394 37.8101H90.3151C90.8629 37.8101 91.3615 37.5524 91.6839 37.1943C92.0062 36.8362 92.1854 36.3975 92.2709 35.9463V35.9453L92.8194 33.0477C93.4979 32.8227 94.1571 32.5483 94.7951 32.2261L97.2348 33.8894C97.6144 34.1482 98.0513 34.3318 98.5326 34.357C99.0138 34.3822 99.549 34.212 99.9363 33.8247L102.818 30.9432C103.205 30.5558 103.376 30.0206 103.35 29.5393C103.325 29.058 103.141 28.6211 102.882 28.2415L101.226 25.8117C101.547 25.1704 101.82 24.5079 102.043 23.8262L104.938 23.2782C105.39 23.1928 105.829 23.0132 106.187 22.6908C106.545 22.3684 106.803 21.8697 106.803 21.322V17.2468C106.803 16.699 106.545 16.1997 106.187 15.8772C105.829 15.555 105.39 15.3759 104.939 15.2905L102.041 14.7419C101.816 14.0639 101.541 13.4051 101.219 12.7674L102.883 10.3273C103.142 9.94773 103.326 9.51077 103.351 9.02945C103.376 8.54814 103.205 8.01289 102.818 7.62553L99.937 4.74407C99.5496 4.35689 99.0147 4.18575 98.5331 4.21105C98.0519 4.23649 97.6154 4.42034 97.2361 4.67886L94.8062 6.3356C94.1649 6.01431 93.5018 5.74171 92.8201 5.51844L92.2714 2.62277C92.186 2.1714 92.007 1.73314 91.6846 1.37495C91.3622 1.01675 90.8636 0.758911 90.3158 0.758911L86.2387 0.759194ZM88.2766 12.2664C92.1609 12.2664 95.294 15.4 95.2939 19.2843C95.2939 23.1684 92.1607 26.3021 88.2766 26.3022C84.3924 26.3022 81.2587 23.1686 81.2585 19.2843C81.2585 15.3999 84.3922 12.2663 88.2766 12.2664Z" fill="#D7B344"/>
<path d="M86.5697 49.5261C86.1853 49.5261 85.8355 49.707 85.6092 49.9584C85.383 50.2097 85.2574 50.5172 85.1975 50.834C85.1975 50.8341 85.1975 50.8343 85.1975 50.8344L84.8129 52.8678C84.3368 53.0257 83.8742 53.2182 83.4265 53.4444L81.7141 52.2767C81.4479 52.0953 81.1416 51.9663 80.8039 51.9485C80.4658 51.9307 80.0908 52.051 79.8193 52.3225L77.7974 54.3445C77.5256 54.6162 77.4057 54.9914 77.4232 55.3291C77.4407 55.6668 77.5695 55.9739 77.751 56.2403L78.9136 57.9454C78.6881 58.3954 78.4965 58.8603 78.3398 59.3386L76.3083 59.7231C75.9916 59.783 75.6835 59.9086 75.4321 60.1348C75.1808 60.3611 75 60.7116 75 61.096V63.9555C75 64.3399 75.1808 64.6898 75.4321 64.916C75.6835 65.1423 75.9916 65.2683 76.3083 65.3282L78.343 65.7137C78.501 66.1892 78.6931 66.6514 78.9191 67.0987L77.751 68.8111C77.5693 69.0776 77.4408 69.3844 77.4232 69.7222C77.4058 70.0599 77.5255 70.4351 77.7974 70.7068L79.8193 72.7288C80.0911 73.0006 80.4662 73.12 80.8039 73.1023C81.1416 73.0847 81.4482 72.9558 81.7146 72.7742L83.4197 71.612C83.8697 71.8375 84.335 72.0287 84.8133 72.1854L85.1978 74.2169C85.2578 74.5336 85.3834 74.8417 85.6097 75.0931C85.8359 75.3444 86.1858 75.5252 86.5702 75.5252H89.4302C89.8146 75.5252 90.1645 75.3444 90.3907 75.0931C90.6169 74.8419 90.7426 74.534 90.8026 74.2174V74.2167L91.1876 72.1834C91.6636 72.0255 92.1262 71.833 92.5739 71.6069L94.2858 72.774C94.5522 72.9556 94.8588 73.0844 95.1965 73.1021C95.5342 73.1198 95.9098 73.0004 96.1816 72.7286L98.2035 70.7066C98.4753 70.4348 98.5949 70.0592 98.5772 69.7215C98.5595 69.3837 98.4306 69.0772 98.2489 68.8108L97.0864 67.1058C97.3119 66.6558 97.5033 66.1909 97.6601 65.7125L99.6916 65.328C100.008 65.2681 100.316 65.142 100.568 64.9158C100.819 64.6896 101 64.3397 101 63.9553V61.0956C101 60.7113 100.819 60.3609 100.568 60.1346C100.317 59.9085 100.009 59.7829 99.6921 59.7229L97.6583 59.3379C97.5005 58.8622 97.3078 58.3999 97.0818 57.9524L98.2494 56.2401C98.431 55.9738 98.5599 55.6672 98.5777 55.3294C98.5956 54.9917 98.4755 54.6161 98.2035 54.3443L96.182 52.3223C95.9102 52.0506 95.5348 51.9305 95.1969 51.9483C94.8592 51.9661 94.553 52.0952 94.2868 52.2766L92.5817 53.4391C92.1316 53.2137 91.6664 53.0224 91.188 52.8657L90.803 50.8338C90.743 50.517 90.6175 50.2095 90.3912 49.9582C90.165 49.7068 89.8151 49.5259 89.4307 49.5259L86.5697 49.5261ZM87.9998 57.6008C90.7254 57.6008 92.924 59.7998 92.9239 62.5254C92.9239 65.2509 90.7253 67.4499 87.9998 67.45C85.2741 67.45 83.0752 65.2511 83.0751 62.5254C83.0751 59.7996 85.274 57.6007 87.9998 57.6008Z" fill="#A1151A"/>
</svg>
