<svg width="51" height="100" viewBox="0 0 51 100" fill="none" xmlns="http://www.w3.org/2000/svg">
<path d="M50.4963 29.4533V21.3618C50.4963 17.2845 49.1837 13.2702 44.5985 12.1464C41.272 11.3372 36.5069 10.2763 36.5069 10.2763C31.2204 8.9367 31.4722 2.9849 31.4722 0.620361H19.0426C19.0426 2.9849 19.2809 8.9367 13.9854 10.2943C13.9854 10.2943 9.22934 11.3552 5.89381 12.1643C1.31758 13.2747 0.00494385 17.3025 0.00494385 21.3797V29.4713C0.00494385 33.2474 3.27753 37.4595 3.27753 40.368V76.8834C3.27753 79.7649 0.00494385 83.986 0.00494385 87.7621V95.8537C0.00494385 97.6293 0.904007 99.1577 3.27753 99.1577H47.2058C49.5658 99.1577 50.4784 97.6293 50.4784 95.8537V87.7621C50.4784 83.986 47.2058 79.7784 47.2058 76.8654V40.35C47.2058 37.4415 50.4963 33.2294 50.4963 29.4533Z" fill="#A1151A"/>
</svg>
