<svg width="115" height="118" viewBox="0 0 115 118" fill="none" xmlns="http://www.w3.org/2000/svg">
<path d="M37.8523 48.7566C38.5091 54.2817 37.9836 59.1491 39.56 63.8849C41.5304 69.2785 43.6321 74.6721 45.6025 80.0657C46.3907 82.039 47.7043 82.9599 49.8061 83.6176C57.0309 85.4593 64.3872 87.5641 70.5611 92.0369C73.7138 94.2733 76.7351 96.6412 79.625 99.1406C82.515 101.509 84.0913 104.929 86.0617 107.955C84.7481 110.322 83.6972 112.559 82.3836 114.795C80.5445 117.821 78.8369 118.347 75.2901 117.821C72.5315 117.426 69.6416 117.163 67.0144 116.111C63.0735 114.532 59.6582 112.296 56.7682 109.139C55.1919 107.297 53.2215 105.587 51.2511 104.271C48.8866 102.693 47.3102 100.719 45.8653 98.4829C44.5517 96.3781 43.5008 94.1417 42.1872 92.0369C41.7931 91.3791 41.0049 90.4583 40.2168 90.3267C35.225 89.4059 30.3647 88.0904 25.5043 86.1171C25.373 86.9064 25.2416 87.5641 25.373 88.0904C25.7671 91.2476 26.1611 94.4048 26.5552 97.6936C27.0807 101.903 29.1824 105.192 32.2037 107.823C35.4878 110.717 36.0132 111.375 32.9919 115.979C31.4156 118.347 30.102 118.61 27.8688 116.768C23.4026 113.348 20.3813 109.139 19.8558 103.219C19.3304 97.1674 18.1481 91.2476 17.36 85.1962C17.0972 83.3545 16.3091 82.3021 14.6014 81.5128C11.7114 80.3288 8.95286 78.8818 6.85109 76.5138C3.69843 73.0935 1.20257 69.2785 0.151682 64.6743C0.0203216 64.0165 -0.111039 63.0956 0.151682 62.5694C2.1221 58.0967 3.96115 53.624 8.55878 50.9929C11.4487 49.2828 12.7623 49.2828 14.9955 51.7822C16.9659 54.0186 18.6736 56.3865 20.3813 58.7545C20.7753 59.2807 21.1694 60.07 21.3008 60.7277C21.9576 64.5427 22.7458 68.3577 23.1398 72.1727C23.4026 74.409 23.928 75.8561 26.2925 76.6454C29.1824 77.5663 31.941 78.7502 34.831 79.8026C35.0937 79.9342 35.4878 79.8026 36.1446 79.9342C36.0132 79.0133 35.8818 78.3556 35.6191 77.6978C34.9623 75.8561 34.1742 73.8828 33.5173 72.0411C32.9919 70.594 32.4665 69.0154 32.3351 67.5684C31.8097 62.8325 31.4156 58.0967 31.0215 53.3609C30.8901 51.1245 31.0215 49.0197 31.1529 46.7833C31.2842 45.2047 30.7588 44.2838 29.4452 43.363C26.4239 41.1266 23.6653 38.6271 20.7753 36.2592C20.2499 35.733 19.5931 35.3384 19.3304 34.6806C17.2286 30.7341 14.9955 26.9191 13.0251 22.841C12.3682 21.3939 12.1055 19.6838 12.2369 18.1052C12.631 12.8431 15.3895 9.02815 19.8558 6.39713C21.6949 5.34472 23.5339 4.29231 25.2416 3.2399C26.9493 2.18749 28.7884 2.05594 30.496 3.10835C32.8605 4.55541 34.9623 6.26558 36.4073 8.63349C39.1659 13.1062 40.6108 17.9736 40.3481 22.9726C40.2168 26.5244 39.0345 29.9448 38.3777 33.4966C38.2463 34.1544 37.9836 34.9437 37.8523 35.6015C37.5895 37.3116 38.115 38.4956 39.56 39.548C43.2381 42.179 47.3102 43.7576 51.3824 45.3362C58.6073 48.0988 65.9635 50.9929 73.1883 53.7555C73.9765 54.0186 74.896 54.2817 75.8156 54.5448C76.0783 53.4924 76.4724 52.7031 76.6037 51.9138C77.1292 48.625 77.5232 45.3362 77.9173 42.0475C78.0487 40.8635 78.0487 39.8111 76.6037 39.4164C71.3493 37.5747 67.6712 33.4966 63.4676 30.0763C59.6582 26.9191 57.1623 22.841 55.586 18.3683C54.0096 13.8955 54.9292 9.55435 57.5564 5.73937C58.7386 4.02921 60.4463 2.7137 62.0227 1.39819C64.6499 -0.57508 67.2771 -0.311978 70.167 1.26664C75.2901 4.02921 77.6546 8.6335 79.625 13.6324C80.5445 15.8688 81.07 18.1052 81.8582 20.4731C83.3031 24.9458 83.0404 29.5501 83.4345 34.1544C83.4345 35.0753 83.5658 35.9961 83.5658 36.917C86.0617 37.9694 88.5576 37.7063 90.9221 37.7063C95.651 37.7063 100.249 37.5747 104.978 37.7063C106.817 37.7063 108.656 38.2325 110.363 38.7587C112.071 39.2849 113.385 40.4689 113.779 42.4421C113.122 42.4421 112.597 42.5737 112.071 42.4421C108.656 40.732 104.978 40.2058 101.168 40.3373C96.4392 40.4689 91.5789 40.2058 86.9812 41.2582C85.799 41.5213 84.4854 41.2582 82.909 41.2582C82.3836 45.8624 80.9386 50.2036 81.3327 54.8079C81.4641 56.6496 82.6463 56.9127 83.9599 57.5705C88.1635 59.4122 92.6297 61.1224 96.7019 63.4903C103.139 67.1737 108.393 72.3042 113.647 77.5663C115.092 79.0133 115.487 80.7235 114.304 82.5652C113.779 83.3545 113.516 84.4069 113.122 85.3278C112.071 88.6165 109.838 90.5898 106.685 91.6422C104.584 92.4315 102.35 93.0893 100.249 93.8786C97.8842 94.7994 95.6511 94.4048 93.2866 93.4839C88.2948 91.5107 84.7481 87.8272 82.1209 83.3545C78.8369 77.9609 76.7351 72.0411 76.341 65.7267C76.2096 63.6218 75.4215 62.701 73.4511 62.1748C63.599 59.5438 54.141 55.8603 44.8144 51.7822C42.7126 50.3352 40.6108 49.6774 37.8523 48.7566ZM78.0487 34.1544C78.0487 31.918 78.3114 29.9448 78.1801 27.9715C77.9173 22.4464 76.0783 17.4474 73.7138 12.4485C72.1375 9.1597 69.773 6.79178 66.7517 4.95007C63.4676 2.84525 61.6286 3.63455 60.315 7.31798C58.4759 12.8431 60.0522 17.7105 63.2049 22.0517C66.883 26.9191 71.8747 30.471 76.8664 33.8913C77.1292 34.0229 77.2605 34.0229 78.0487 34.1544ZM82.6463 65.2005C82.6463 65.8582 82.6463 66.2529 82.7777 66.6475C83.9599 69.6732 85.0108 72.8304 86.5871 75.7245C88.4262 79.2764 91.0534 82.3021 94.2061 84.67C96.9647 86.7748 99.986 87.6957 103.533 86.5117C104.978 85.9855 106.423 85.854 107.736 85.4593C110.758 84.67 111.546 82.6968 109.575 80.1973C108.524 78.8818 107.342 77.4347 105.897 76.5138C100.774 72.962 95.5197 69.5416 89.7398 67.1737C87.638 66.1213 85.4049 65.0689 82.6463 65.2005ZM32.4665 33.7597C34.3055 31.918 34.831 30.0763 34.5682 28.1031C34.4369 26.9191 34.3055 25.7351 34.3055 24.5512C34.3055 22.0517 33.6487 19.6838 32.3351 17.4474C31.5469 16.0004 30.6274 14.5533 29.7079 13.2378C28.3943 11.2645 26.5552 9.81745 24.4534 9.02815C22.3517 8.23884 20.9067 8.8966 20.1185 10.8699C18.9363 13.764 18.9363 16.6581 20.5126 19.2891C22.6144 22.7095 24.7162 26.1298 27.212 29.287C28.657 31.1287 30.6274 32.3127 32.4665 33.7597ZM77.6546 108.744C74.6333 103.482 60.4463 94.7995 55.0605 94.7995C58.2132 100.061 72.5315 108.875 77.6546 108.744ZM8.55878 56.1234C8.29606 56.7812 7.90197 57.1758 7.77061 57.702C6.98245 59.9384 7.77061 62.0432 8.69014 64.0165C10.1351 67.0422 12.2369 69.4101 15.1268 71.2518C16.1777 67.0422 12.631 58.886 8.55878 56.1234Z" fill="#D7B344"/>
</svg>
